<svg width="554" height="309" viewBox="0 0 554 309" fill="none" xmlns="http://www.w3.org/2000/svg">
<path d="M7.92188 273V204.75H30.2344C37.6406 204.75 43.2031 206.281 46.9219 209.344C50.6719 212.406 52.5469 216.938 52.5469 222.938C52.5469 226.125 51.6406 228.953 49.8281 231.422C48.0156 233.859 45.5469 235.75 42.4219 237.094C46.1094 238.125 49.0156 240.094 51.1406 243C53.2969 245.875 54.375 249.312 54.375 253.312C54.375 259.438 52.3906 264.25 48.4219 267.75C44.4531 271.25 38.8438 273 31.5938 273H7.92188ZM16.9219 241.078V265.641H31.7812C35.9688 265.641 39.2656 264.562 41.6719 262.406C44.1094 260.219 45.3281 257.219 45.3281 253.406C45.3281 245.188 40.8594 241.078 31.9219 241.078H16.9219ZM16.9219 233.859H30.5156C34.4531 233.859 37.5938 232.875 39.9375 230.906C42.3125 228.938 43.5 226.266 43.5 222.891C43.5 219.141 42.4062 216.422 40.2188 214.734C38.0312 213.016 34.7031 212.156 30.2344 212.156H16.9219V233.859ZM77.3906 273H68.3906V204.75H77.3906V273ZM146.391 241.078C146.391 247.766 145.266 253.609 143.016 258.609C140.766 263.578 137.578 267.375 133.453 270C129.328 272.625 124.516 273.938 119.016 273.938C113.641 273.938 108.875 272.625 104.719 270C100.562 267.344 97.3281 263.578 95.0156 258.703C92.7344 253.797 91.5625 248.125 91.5 241.688V236.766C91.5 230.203 92.6406 224.406 94.9219 219.375C97.2031 214.344 100.422 210.5 104.578 207.844C108.766 205.156 113.547 203.812 118.922 203.812C124.391 203.812 129.203 205.141 133.359 207.797C137.547 210.422 140.766 214.25 143.016 219.281C145.266 224.281 146.391 230.109 146.391 236.766V241.078ZM137.438 236.672C137.438 228.578 135.812 222.375 132.562 218.062C129.312 213.719 124.766 211.547 118.922 211.547C113.234 211.547 108.75 213.719 105.469 218.062C102.219 222.375 100.547 228.375 100.453 236.062V241.078C100.453 248.922 102.094 255.094 105.375 259.594C108.688 264.062 113.234 266.297 119.016 266.297C124.828 266.297 129.328 264.188 132.516 259.969C135.703 255.719 137.344 249.641 137.438 241.734V236.672ZM203.812 242.578C196.094 240.359 190.469 237.641 186.938 234.422C183.438 231.172 181.688 227.172 181.688 222.422C181.688 217.047 183.828 212.609 188.109 209.109C192.422 205.578 198.016 203.812 204.891 203.812C209.578 203.812 213.75 204.719 217.406 206.531C221.094 208.344 223.938 210.844 225.938 214.031C227.969 217.219 228.984 220.703 228.984 224.484H219.938C219.938 220.359 218.625 217.125 216 214.781C213.375 212.406 209.672 211.219 204.891 211.219C200.453 211.219 196.984 212.203 194.484 214.172C192.016 216.109 190.781 218.812 190.781 222.281C190.781 225.062 191.953 227.422 194.297 229.359C196.672 231.266 200.688 233.016 206.344 234.609C212.031 236.203 216.469 237.969 219.656 239.906C222.875 241.812 225.25 244.047 226.781 246.609C228.344 249.172 229.125 252.188 229.125 255.656C229.125 261.188 226.969 265.625 222.656 268.969C218.344 272.281 212.578 273.938 205.359 273.938C200.672 273.938 196.297 273.047 192.234 271.266C188.172 269.453 185.031 266.984 182.812 263.859C180.625 260.734 179.531 257.188 179.531 253.219H188.578C188.578 257.344 190.094 260.609 193.125 263.016C196.188 265.391 200.266 266.578 205.359 266.578C210.109 266.578 213.75 265.609 216.281 263.672C218.812 261.734 220.078 259.094 220.078 255.75C220.078 252.406 218.906 249.828 216.562 248.016C214.219 246.172 209.969 244.359 203.812 242.578ZM293.156 273H284.109V241.453H249.703V273H240.703V204.75H249.703V234.094H284.109V204.75H293.156V273ZM361.641 241.078C361.641 247.766 360.516 253.609 358.266 258.609C356.016 263.578 352.828 267.375 348.703 270C344.578 272.625 339.766 273.938 334.266 273.938C328.891 273.938 324.125 272.625 319.969 270C315.812 267.344 312.578 263.578 310.266 258.703C307.984 253.797 306.812 248.125 306.75 241.688V236.766C306.75 230.203 307.891 224.406 310.172 219.375C312.453 214.344 315.672 210.5 319.828 207.844C324.016 205.156 328.797 203.812 334.172 203.812C339.641 203.812 344.453 205.141 348.609 207.797C352.797 210.422 356.016 214.25 358.266 219.281C360.516 224.281 361.641 230.109 361.641 236.766V241.078ZM352.688 236.672C352.688 228.578 351.062 222.375 347.812 218.062C344.562 213.719 340.016 211.547 334.172 211.547C328.484 211.547 324 213.719 320.719 218.062C317.469 222.375 315.797 228.375 315.703 236.062V241.078C315.703 248.922 317.344 255.094 320.625 259.594C323.938 264.062 328.484 266.297 334.266 266.297C340.078 266.297 344.578 264.188 347.766 259.969C350.953 255.719 352.594 249.641 352.688 241.734V236.672ZM384.141 246.281V273H375.141V204.75H400.312C407.781 204.75 413.625 206.656 417.844 210.469C422.094 214.281 424.219 219.328 424.219 225.609C424.219 232.234 422.141 237.344 417.984 240.938C413.859 244.5 407.938 246.281 400.219 246.281H384.141ZM384.141 238.922H400.312C405.125 238.922 408.812 237.797 411.375 235.547C413.938 233.266 415.219 229.984 415.219 225.703C415.219 221.641 413.938 218.391 411.375 215.953C408.812 213.516 405.297 212.25 400.828 212.156H384.141V238.922Z" fill="black"/>
<path d="M209.5 0L322.516 168.75H96.4837L209.5 0Z" fill="#41A4E8"/>
<path d="M208 0L267.756 84.75H148.244L208 0Z" fill="#C2E841"/>
</svg>
